<svg width="50" height="42" viewBox="0 0 50 42" fill="none" xmlns="http://www.w3.org/2000/svg">
<path d="M47.9932 2.02769C45.9915 3.43963 43.7752 4.51954 41.4297 5.22583C40.1708 3.77833 38.4977 2.75238 36.6367 2.28673C34.7757 1.82109 32.8166 1.93822 31.0244 2.62228C29.2322 3.30634 27.6933 4.52433 26.6158 6.11151C25.5383 7.6987 24.9743 9.5785 25 11.4967V13.587C21.3266 13.6822 17.6867 12.8675 14.4044 11.2154C11.1221 9.56333 8.29933 7.12513 6.18749 4.11798C6.18749 4.11798 -2.17365 22.9305 16.6389 31.2917C12.334 34.2138 7.20578 35.679 2.00692 35.4722C20.8195 45.9237 43.8126 35.4722 43.8126 11.434C43.8107 10.8517 43.7547 10.2709 43.6454 9.69903C45.7787 7.59515 47.2842 4.93886 47.9932 2.02769Z" stroke="white" stroke-width="4" stroke-linecap="round" stroke-linejoin="round"/>
</svg>
